<svg role="img" aria-hidden="true" width="36" height="36" xmlns="http://www.w3.org/2000/svg"><g fill-rule="evenodd" fill="none" stroke="null"><path d="M32.95 18c0 8.258-6.693 14.95-14.95 14.95S3.05 26.26 3.05 18 9.742 3.05 18 3.05 32.95 9.74 32.95 18" stroke-width="2" stroke="#e90606"></path><path d="M19.718 13.698c.433-.014.866-.004 1.3-.004h.18V11.57c-.232-.023-.473-.054-.716-.065-.445-.02-.89-.04-1.336-.03-.68.013-1.323.17-1.884.55-.644.435-.998 1.05-1.132 1.773-.057.3-.07.607-.08.912-.01.477-.002.953 0 1.43v.18h-2.16v2.373h2.147v5.966h2.622V18.7h2.134l.33-2.385h-.482c-.608.002-2.004 0-2.004 0s.006-1.177.02-1.687c.02-.7.46-.912 1.057-.932" fill="#e90606"></path></g></svg>