<svg role="img" aria-hidden="true" width="36" height="36" xmlns="http://www.w3.org/2000/svg"><g fill-rule="evenodd" fill="none" stroke="null"><path d="M32.95 18c0 8.257-6.693 14.95-14.95 14.95S3.05 26.258 3.05 18 9.742 3.05 18 3.05 32.95 9.742 32.95 18" stroke-width="2" stroke="#e90606"></path><path d="M22.624 22c0 .344-.28.624-.623.624h-8.47c-.342 0-.62-.28-.62-.623v-5.13h1.218c-.07.29-.104.59-.104.9 0 2.07 1.677 3.75 3.75 3.75 2.07 0 3.75-1.68 3.75-3.75 0-.306-.038-.604-.108-.89h1.22V22zm-7.137-5.13c.356-.907 1.24-1.552 2.274-1.552 1.04 0 1.92.645 2.28 1.553.11.28.17.58.17.9 0 1.347-1.1 2.444-2.44 2.444-1.345 0-2.442-1.097-2.442-2.443 0-.314.06-.615.17-.89zm4.916-3.576c0-.19.154-.344.344-.344h1.49c.19 0 .344.154.344.344v1.49c0 .19-.15.344-.34.344h-1.49c-.19 0-.34-.154-.34-.344v-1.49zM22 11.592h-8.478c-1.065 0-1.93.865-1.93 1.93v8.48c0 1.064.865 1.93 1.93 1.93h8.48c1.065 0 1.93-.866 1.93-1.93v-8.48c0-1.065-.865-1.93-1.93-1.93z" fill="#e90606"></path></g></svg>