<svg role="img" aria-hidden="true" width="36" height="36" xmlns="http://www.w3.org/2000/svg"><g fill-rule="evenodd" fill="none" stroke="null"><path d="M32.976 18c0 8.272-6.705 14.976-14.976 14.976-8.27 0-14.976-6.704-14.976-14.976C3.024 9.728 9.73 3.024 18 3.024S32.976 9.728 32.976 18" stroke-width="2" stroke="#e90606"></path><path d="M17.162 20.54c-.012.038-.022.072-.03.105-.505 1.976-.562 2.415-1.08 3.332-.247.437-.525.85-.834 1.246-.034.044-.067.102-.137.088-.07-.01-.08-.08-.08-.14-.08-.6-.13-1.2-.11-1.81.03-.79.13-1.06 1.15-5.34.02-.06 0-.12-.02-.18-.24-.65-.29-1.32-.08-2 .46-1.46 2.12-1.57 2.41-.36.18.75-.292 1.72-.654 3.16-.3 1.19 1.1 2.04 2.298 1.17 1.106-.8 1.534-2.72 1.45-4.08-.16-2.71-3.13-3.29-5.02-2.42-2.16 1-2.65 3.68-1.675 4.91.126.157.22.25.18.41-.06.244-.117.49-.186.735-.05.184-.2.25-.384.175-.36-.148-.66-.377-.9-.678-.83-1.026-1.07-3.057.03-4.776 1.212-1.906 3.47-2.676 5.534-2.443 2.468.28 4.02 1.964 4.316 3.873.13.87.035 3.012-1.186 4.53-1.404 1.74-3.68 1.854-4.73.785-.08-.08-.146-.18-.225-.272" fill="#e90606"></path></g></svg>