<svg role="img" aria-hidden="true" width="36" height="36" xmlns="http://www.w3.org/2000/svg"><g fill-rule="evenodd" fill="none" stroke="null"><path d="M32.977 18c0 8.272-6.705 14.976-14.977 14.976S3.023 26.272 3.023 18C3.023 9.728 9.728 3.024 18 3.024S32.977 9.728 32.977 18" stroke-width="2" stroke="#e90606"></path><path d="M15.783 21.476c-1.48-.052-2.404-1.114-2.65-1.976.413.078.82.063 1.222-.037.01-.002.02-.01.04-.018-.8-.187-1.42-.616-1.848-1.307-.286-.46-.422-.962-.418-1.514.4.214.81.333 1.26.345-.607-.44-1.01-1.01-1.177-1.73-.164-.73-.057-1.42.306-2.07 1.54 1.813 3.492 2.81 5.872 2.973-.02-.113-.037-.21-.048-.31-.08-.67.054-1.295.416-1.86.454-.71 1.1-1.15 1.93-1.29.96-.156 1.796.117 2.495.795.046.045.085.06.15.045.586-.125 1.14-.335 1.657-.635l.04-.02h.02c-.225.664-.635 1.174-1.22 1.55.553-.06 1.08-.206 1.586-.426l.01.013c-.11.143-.215.29-.327.427-.302.373-.65.7-1.035.984-.034.025-.05.05-.05.09.016.424 0 .846-.053 1.266-.11.885-.352 1.73-.73 2.534-.39.833-.9 1.585-1.54 2.246-1.083 1.12-2.39 1.844-3.912 2.18-.52.115-1.05.173-1.585.19-1.64.046-3.16-.36-4.554-1.224l-.066-.043c.996.107 1.94-.02 2.85-.393.484-.197.93-.457 1.354-.79" fill="#e90606"></path></g></svg>